<svg xmlns="http://www.w3.org/2000/svg" viewBox="0 0 24 24" fill="#F5B601"><path d="M13.983 11.078h2.119a.186.186 0 00.186-.185V9.006a.186.186 0 00-.186-.186h-2.119a.185.185 0 00-.185.185v1.888c0 .102.083.185.185.185m-2.954-5.43h2.118a.186.186 0 00.186-.186V3.574a.186.186 0 00-.186-.185h-2.118a.185.185 0 00-.185.185v1.888c0 .102.082.185.185.185m0 2.716h2.118a.187.187 0 00.186-.186V6.29a.186.186 0 00-.186-.185h-2.118a.185.185 0 00-.185.185v1.887c0 .102.082.186.185.186m-2.93 0h2.12a.186.186 0 00.184-.186V6.29a.185.185 0 00-.185-.185H8.1a.185.185 0 00-.185.185v1.887c0 .102.083.186.185.186m-2.954 0h2.119a.186.186 0 00.185-.186V6.29a.185.185 0 00-.185-.185H5.145a.185.185 0 00-.185.185v1.887c0 .102.083.186.185.186m8.839 2.714h2.118a.186.186 0 00.186-.185V9.006a.186.186 0 00-.186-.186h-2.118a.186.186 0 00-.186.185v1.888c0 .102.084.185.186.185zm-2.93 0h2.12a.185.185 0 00.184-.185V9.006a.185.185 0 00-.184-.186h-2.12a.185.185 0 00-.184.185v1.888c0 .102.083.185.185.185zm-2.955 0h2.119a.185.185 0 00.185-.185V9.006a.185.185 0 00-.185-.186h-2.12a.186.186 0 00-.184.185v1.888c0 .102.083.185.185.185zm-2.954 0h2.119a.185.185 0 00.185-.185V9.006a.185.185 0 00-.185-.186H2.19a.185.185 0 00-.185.185v1.888c0 .102.083.185.185.185m21.758 1.488c-.62-.37-1.74-.476-2.673-.42-.23-1.63-1.423-2.914-2.893-3.23l-.337-.074-.215.274c-.58.74-1.02 1.638-1.28 2.595-.91-.186-1.89-.14-2.84.093H.99c-.546 0-.99.444-.99.99 0 3.73 2.5 7.15 6.46 8.87 5.07 2.21 11.23 1.34 15.53-2.2 1.46-1.2 2.27-3.04 2.01-4.99-.08-.6-.33-1.2-.67-1.7"/></svg>